<svg xmlns="http://www.w3.org/2000/svg" width="889" height="81" viewBox="0 0 889 81">
  <g id="Group_3" data-name="Group 3" transform="translate(-968 -7259)">
    <g id="Group_2" data-name="Group 2">
      <rect id="Rectangle_19" data-name="Rectangle 19" width="81" height="81" transform="translate(968 7259)" fill="#fff"/>
      <text id="L" transform="translate(997 7320)" fill="#0d0d0d" font-size="50" font-family="SegoeUI, Segoe UI"><tspan x="0" y="0">L</tspan></text>
      <rect id="Rectangle_20" data-name="Rectangle 20" width="81" height="81" transform="translate(1069 7259)" fill="#fff"/>
      <text id="E" transform="translate(1097 7320)" fill="#0d0d0d" font-size="50" font-family="SegoeUI, Segoe UI"><tspan x="0" y="0">E</tspan></text>
      <rect id="Rectangle_21" data-name="Rectangle 21" width="81" height="81" transform="translate(1170 7259)" fill="#fff"/>
      <text id="N" transform="translate(1192 7320)" fill="#0d0d0d" font-size="50" font-family="SegoeUI, Segoe UI"><tspan x="0" y="0">N</tspan></text>
      <rect id="Rectangle_22" data-name="Rectangle 22" width="81" height="81" transform="translate(1271 7259)" fill="#fff"/>
      <text id="S" transform="translate(1298 7320)" fill="#0d0d0d" font-size="50" font-family="SegoeUI, Segoe UI"><tspan x="0" y="0">S</tspan></text>
      <rect id="Rectangle_23" data-name="Rectangle 23" width="81" height="81" transform="translate(1372 7259)" fill="#fff"/>
      <text id="F" transform="translate(1397 7320)" fill="#0d0d0d" font-size="50" font-family="SegoeUI, Segoe UI"><tspan x="0" y="0">F</tspan></text>
      <rect id="Rectangle_24" data-name="Rectangle 24" width="81" height="81" transform="translate(1473 7259)" fill="#fff"/>
      <text id="L-2" data-name="L" transform="translate(1502 7320)" fill="#0d0d0d" font-size="50" font-family="SegoeUI, Segoe UI"><tspan x="0" y="0">L</tspan></text>
      <rect id="Rectangle_25" data-name="Rectangle 25" width="81" height="81" transform="translate(1574 7259)" fill="#fff"/>
      <text id="A" transform="translate(1599 7320)" fill="#0d0d0d" font-size="50" font-family="SegoeUI, Segoe UI"><tspan x="0" y="0">A</tspan></text>
      <rect id="Rectangle_26" data-name="Rectangle 26" width="81" height="81" transform="translate(1675 7259)" fill="#fff"/>
      <text id="I" transform="translate(1709 7320)" fill="#0d0d0d" font-size="50" font-family="SegoeUI, Segoe UI"><tspan x="0" y="0">I</tspan></text>
      <rect id="Rectangle_27" data-name="Rectangle 27" width="81" height="81" transform="translate(1776 7259)" fill="#fff"/>
      <text id="R" transform="translate(1805 7320)" fill="#0d0d0d" font-size="50" font-family="SegoeUI, Segoe UI"><tspan x="0" y="0">R</tspan></text>
    </g>
  </g>
</svg>
